<svg width="28" height="32" xmlns="http://www.w3.org/2000/svg"><g stroke="#417AE7" stroke-width="1.5" fill="none" fill-rule="evenodd" stroke-linecap="round" stroke-linejoin="round"><path d="M12.882 7v2.514s.474 2.172-3.882 2.972C4.644 13.286 4 19 4 19s10.5-6.418 21 0c0 0-.644-5.715-5-6.514-4.357-.8-3.882-2.972-3.882-2.972V7m.226 0C17.34 6.429 18 5.408 18 4.244 18 2.452 16.434 1 14.5 1S11 2.452 11 4.244C11 5.41 11.662 6.43 12.658 7M14 31h-2m-7 0H1l3.444-12M9.55 31H7m14.536 0H18m-2 0h-2m10-12l3 12h-2.08M5 31l1.459-3L7 31"/><path d="M22 31v-5l3 5m-9 0l1.177-8L18 31m-8 0l1.036-6L12 31"/></g></svg>